<svg xmlns="http://www.w3.org/2000/svg">
  <defs>
    <symbol id="icon-logo" viewBox="0 0 39 32">
      <path d="m22.371 9.64-.749-.571a.57.57 0 0 0-.8.079l-.001.001-10.36 11.897.16.177 2.566-2.366a.395.395 0 0 1 .147-.76h.007c.174 0 .321.114.371.272l.001.003 3.383-3.137a.291.291 0 0 1 .366 0h-.001l.171.126a.285.285 0 0 0 .382-.046l4.423-4.96a.473.473 0 0 0-.067-.714l-.001-.001z"/>
      <path d="M27.24 12.989a22.87 22.87 0 0 1-7.335 3.477l-.162.037c-2.401.638-5.193 1.072-8.063 1.208l-.092.003c.055.406.155.805.297 1.189 1.554 1.406 13.257-.994 15.543-3.771.486-.577-.189-2.143-.189-2.143zm-13.897 5.868a.389.389 0 1 1 .389-.389v.006a.382.382 0 0 1-.382.382h-.007zM2.286 12.166l.091-.394 1.486.337c.123.226.198.475.223.731a2.43 2.43 0 0 1-.051.811 2.157 2.157 0 0 1-.493.997l.002-.002a1.97 1.97 0 0 1-.866.568l-.014.004a2.109 2.109 0 0 1-1.095.038l.014.003a2.001 2.001 0 0 1-.955-.504l.001.001a1.883 1.883 0 0 1-.54-.884l-.003-.013a2.15 2.15 0 0 1 .004-1.158l-.004.015c.061-.28.171-.547.326-.789.147-.22.339-.399.563-.527l.008-.004.206.314a1.64 1.64 0 0 0-.753 1.099l-.002.01a1.792 1.792 0 0 0 .02.91l-.003-.013c.077.278.229.529.44.726.217.21.488.354.783.417.286.08.589.08.874 0 .274-.09.52-.25.714-.463.2-.23.337-.507.4-.806a1.755 1.755 0 0 0-.073-1.103l.004.012-1.309-.331zM5.52 8.571l-1.331 1.777.571 1.023-.263.354-2.114-3.857.246-.337 4.303.926-.269.354-1.143-.24zm-.377-.091-2.286-.514L4 10.017 5.143 8.48zm0-3.594.343-.257 2.177 2.914L9.457 6.2l.217.291-2.131 1.594-2.4-3.2zm3.6-2.383.383-.171 1.509 3.303 2.04-.926.149.331-2.423 1.103-1.657-3.64zm7.531 1.314.086.36-2.754.646-.914-3.897 2.674-.623.08.354-2.286.531.326 1.383 2.011-.474.086.354-2.017.469.343 1.446 2.366-.549zm3.926.143-.954-1.257a2.847 2.847 0 0 1-.32 0l-1.074.034.04 1.269h-.423l-.131-4L18.858 0a1.8 1.8 0 0 1 1.217.329L20.07.325c.287.232.469.585.469.979v.016-.001c.017.282-.057.563-.211.8a1.34 1.34 0 0 1-.653.483l-.009.003 1 1.337-.463.017zm-.4-1.88a.909.909 0 0 0 .291-.752v.004-.02a.916.916 0 0 0-.336-.71l-.002-.001a1.373 1.373 0 0 0-.902-.234h.005l-1.086.04.069 2 1.063-.034a1.36 1.36 0 0 0 .9-.294l-.003.002zm3.423.817-.206 1.366L22.6 4.2l.211-1.343L21.628 0l.446.069 1.011 2.434L24.799.486l.4.086-1.977 2.326zm5.651-.24.497.646-.217.171-.497-.663-.314.749-.24-.103.32-.749-.823.109v-.274l.811-.091-.503-.646.223-.171.44.651.309-.754.246.103-.291.766.823-.114v.28l-.783.091zm1.909 4.606a1.565 1.565 0 0 1-.245-.684l-.001-.007.337-.149c.025.226.099.445.217.64.127.219.294.413.491.571.197.189.452.318.736.359l.007.001a.62.62 0 0 0 .536-.221l.001-.001a.51.51 0 0 0 .133-.345l-.002-.045v.002a1.054 1.054 0 0 0-.14-.399l.003.005a5.935 5.935 0 0 0-.359-.523l.01.014a4.995 4.995 0 0 1-.398-.603l-.013-.026a1.133 1.133 0 0 1-.149-.536v-.001a.84.84 0 0 1 .223-.571c.123-.148.283-.261.467-.324l.007-.002a1.125 1.125 0 0 1 .642.002l-.008-.002c.28.093.522.234.728.414l-.002-.002c.176.146.331.315.463.503.121.174.212.367.269.571l-.326.171a2.006 2.006 0 0 0-.256-.544l.005.007a2.1 2.1 0 0 0-.379-.391l-.004-.003a1.265 1.265 0 0 0-.731-.348l-.006-.001a.616.616 0 0 0-.536.233l-.001.001a.49.49 0 0 0-.131.39v-.002a.934.934 0 0 0 .137.406c.08.131.194.303.349.509.153.194.29.401.411.617.091.154.148.338.154.535v.002a.84.84 0 0 1-.223.571 1.02 1.02 0 0 1-.473.324l-.007.002a1.093 1.093 0 0 1-.642-.002l.008.002a2.115 2.115 0 0 1-.734-.414l.003.002a2.626 2.626 0 0 1-.565-.695l-.007-.013zm5.748.834-.806-1.143.297-.211 1.857 2.651-.297.211-.806-1.143-2.983 2.086-.24-.349 2.977-2.103zm-1.28 4.697c.107-.357.306-.659.569-.89l.002-.002c.256-.23.573-.396.924-.472l.013-.002a2.086 2.086 0 0 1 1.089.044l-.015-.004c.348.117.642.314.873.57l.002.002c.238.272.409.609.483.981l.002.014a2.21 2.21 0 0 1-.003 1.118l.004-.015a1.975 1.975 0 0 1-.569.89l-.002.002a2.111 2.111 0 0 1-2.055.441l.015.004a1.912 1.912 0 0 1-.872-.569l-.002-.002a2.137 2.137 0 0 1-.483-.975l-.002-.014a2.187 2.187 0 0 1 .033-1.136l-.004.016zM36 14.611a1.575 1.575 0 0 0 1.207.533c.446 0 .854-.165 1.166-.438l-.002.002c.211-.194.367-.44.451-.714a1.835 1.835 0 0 0-.374-1.683l.002.003a1.63 1.63 0 0 0-.726-.46l-.012-.003a1.697 1.697 0 0 0-.892.003l.012-.003c-.303.06-.568.199-.778.395l.001-.001a1.594 1.594 0 0 0-.448.709l-.003.011a1.705 1.705 0 0 0 .003.898l-.003-.012c.067.296.205.553.395.761l-.001-.001zm-1.183 4.818 1.48-.571c0-.103.034-.206.063-.314l.28-1.034-1.211-.314.109-.406 3.863 1.034-.389 1.446c-.092.435-.33.803-.659 1.06l-.004.003a1.226 1.226 0 0 1-1.094.157l.009.003a1.242 1.242 0 0 1-.977-1.205l-1.577.571.109-.429zm1.914.16a1.03 1.03 0 0 0 1.439.38l-.004.003c.246-.199.421-.478.484-.797l.001-.009.274-1.029-1.937-.52-.274 1.029a1.366 1.366 0 0 0 .02.952l-.003-.009zm-3.965 3.52-.291-.223 1.714-2.257 3.189 2.417-1.657 2.189-.291-.223 1.4-1.846-1.143-.863-1.251 1.651-.286-.217 1.28-1.651-1.183-.897-1.48 1.92zm-1.337 4.554-.817.046v-.274l.817-.006-.44-.68.223-.143.434.686.354-.766.246.131-.389.72.817-.046v.28h-.829l.44.68-.223.143-.434-.686-.377.743-.24-.137.417-.691zM24 27.206l.691.383a1.781 1.781 0 0 1 1.131-.9l.012-.003a1.77 1.77 0 0 1 .711-.074l-.007-.001c.216.017.411.092.575.208l-.003-.002a.894.894 0 0 1 .32.457c.069.226.057.469-.034.686-.151.307-.342.57-.571.794.189.101.363.226.52.371a.983.983 0 0 1 .234.394.758.758 0 0 1-.15.67l.001-.001a1.1 1.1 0 0 1-.632.438l-.008.002a.996.996 0 0 1-.709 0 .716.716 0 0 1-.41-.481l-.001-.005a.78.78 0 0 1 .042-.576l-.002.005a2.76 2.76 0 0 1 .509-.703l-1.377-.766a2.7 2.7 0 0 0-.034.817h-.349a2.73 2.73 0 0 1 .119-1.014l-.005.019-.72-.4.149-.32zm.994.571 1.514.84c.194-.186.357-.403.479-.644l.006-.014a.723.723 0 0 0 0-.514.618.618 0 0 0-.396-.427l-.004-.001a1.123 1.123 0 0 0-.74.003l.008-.002a1.376 1.376 0 0 0-.888.735l-.004.008.023.017zm2.149 2.286a.509.509 0 0 0 .045-.427l.001.004a.703.703 0 0 0-.183-.297 2.479 2.479 0 0 0-.46-.308l-.014-.006a2.999 2.999 0 0 0-.444.559l-.007.013a.566.566 0 0 0-.045.426l-.001-.004a.483.483 0 0 0 .249.302l.003.001a.637.637 0 0 0 .451 0 .68.68 0 0 0 .381-.266l.001-.002.023.006zm-10.109 1.548.08-4h.406l-.063 3.2 1.623-2.663h.2l1.52 2.709.057-3.183h.406l-.074 4h-.349l-1.68-2.989-1.777 2.931-.349-.006zm-1.988-4.182a1.943 1.943 0 0 1 .516 1.991l.004-.014c-.1.367-.289.682-.543.931a1.91 1.91 0 0 1-.907.5l-.013.003a2.189 2.189 0 0 1-1.124-.039l.016.004a2.15 2.15 0 0 1-.961-.521l.001.001a1.918 1.918 0 0 1-.528-.889l-.003-.013a2.1 2.1 0 0 1 .572-2.011c.242-.242.548-.421.889-.511l.014-.003a2.202 2.202 0 0 1 1.118.038l-.016-.004c.378.098.704.285.966.538l-.001-.001zm-1.949-.2a1.523 1.523 0 0 0-.737.411 1.652 1.652 0 0 0-.432.748l-.003.012c-.08.286-.08.589 0 .874.067.278.212.531.417.731.209.204.469.357.759.437l.012.003a1.796 1.796 0 0 0 .898-.003l-.012.003a1.63 1.63 0 0 0 .743-.411 1.68 1.68 0 0 0 .432-.748l.003-.012a1.645 1.645 0 0 0-.003-.892l.003.012a1.613 1.613 0 0 0-.423-.731 1.718 1.718 0 0 0-.765-.432l-.012-.003a1.645 1.645 0 0 0-.892.003l.012-.003zm-4.326-2.658.154 1.571c.098.042.194.09.286.143l.931.537.629-1.109.371.211-2 3.446-1.303-.749a1.826 1.826 0 0 1-.853-.903l-.005-.012a1.256 1.256 0 0 1 .128-1.091l-.003.005c.133-.25.343-.451.6-.571a1.299 1.299 0 0 1 .832-.061l-.009-.002-.166-1.68.406.263zm-.651 1.806a1.03 1.03 0 0 0-.735 1.293l-.002-.007c.134.296.366.536.657.68l.92.531 1-1.714-.92-.531a1.401 1.401 0 0 0-.923-.28h.004v.029zm-2.731-4.486.257-.257 1.971 2.029-2.857 2.789-1.903-1.966.263-.257 1.617 1.663.977-.989-1.417-1.474.274-.263 1.446 1.486 1.063-1.034-1.691-1.726zm-4.246-2.245.137-.789.269.04-.154.811.76-.28.091.251-.771.263.634.537-.183.206-.611-.571-.143.811-.274-.051.16-.811-.766.274-.086-.223.766-.269-.634-.531.189-.206.617.537z"/>
    </symbol>
    <symbol id="icon-facebook" viewBox="0 0 32 32">
      <path d="M21.329 5.313h2.921V.225C23.746.156 22.013 0 19.994 0c-4.212 0-7.097 2.649-7.097 7.519V12H8.249v5.688h4.648V32h5.699V17.689h4.46l.708-5.688h-5.169V8.082c.001-1.644.444-2.769 2.735-2.769z"/>
    </symbol>
    <symbol id="icon-instagram" viewBox="0 0 32 32">
      <path d="M31.969 9.408c-.075-1.7-.35-2.869-.744-3.882a7.803 7.803 0 0 0-1.85-2.838A7.867 7.867 0 0 0 26.543.844C25.524.45 24.361.175 22.661.1 20.948.019 20.404 0 16.06 0s-4.888.019-6.595.094c-1.7.075-2.869.35-3.882.744a7.803 7.803 0 0 0-2.838 1.85A7.867 7.867 0 0 0 .901 5.52C.507 6.539.232 7.702.157 9.402c-.081 1.713-.1 2.257-.1 6.601s.019 4.888.094 6.595c.075 1.7.35 2.869.744 3.882a7.895 7.895 0 0 0 1.85 2.838 7.867 7.867 0 0 0 2.832 1.844c1.019.394 2.182.669 3.882.744 1.706.075 2.25.094 6.595.094s4.888-.019 6.595-.094c1.7-.075 2.869-.35 3.882-.744a8.184 8.184 0 0 0 4.682-4.682c.394-1.019.669-2.182.744-3.882.075-1.707.094-2.251.094-6.595s-.006-4.888-.081-6.595zm-2.882 13.065c-.069 1.563-.331 2.407-.55 2.969a5.31 5.31 0 0 1-3.038 3.038c-.563.219-1.413.481-2.969.55-1.688.075-2.194.094-6.464.094s-4.782-.019-6.464-.094c-1.563-.069-2.407-.331-2.969-.55a4.926 4.926 0 0 1-1.838-1.194 4.974 4.974 0 0 1-1.194-1.838c-.219-.563-.481-1.413-.55-2.969-.075-1.688-.094-2.194-.094-6.464s.019-4.782.094-6.464c.069-1.563.331-2.407.55-2.969a4.868 4.868 0 0 1 1.2-1.838A4.974 4.974 0 0 1 6.639 3.55c.563-.219 1.413-.481 2.969-.55 1.688-.075 2.194-.094 6.464-.094 4.276 0 4.782.019 6.464.094 1.563.069 2.407.331 2.969.55a4.914 4.914 0 0 1 1.838 1.194 4.974 4.974 0 0 1 1.194 1.838c.219.563.481 1.413.55 2.969.075 1.688.094 2.194.094 6.464s-.019 4.77-.094 6.458z"/>
      <path d="M16.059 7.783c-4.538 0-8.22 3.682-8.22 8.22s3.682 8.22 8.22 8.22 8.22-3.682 8.22-8.22-3.682-8.22-8.22-8.22zm0 13.552a5.333 5.333 0 0 1 0-10.664 5.333 5.333 0 0 1 0 10.664zM26.524 7.458a1.919 1.919 0 1 1-3.838 0 1.919 1.919 0 0 1 3.838 0z"/>
    </symbol>
    <symbol id="icon-linkedin" viewBox="0 0 32 32">
      <path d="M31.992 32v-.001H32V20.263c0-5.741-1.236-10.164-7.948-10.164-3.227 0-5.392 1.771-6.276 3.449h-.093v-2.913h-6.364v21.364h6.627V21.42c0-2.785.528-5.479 3.977-5.479 3.399 0 3.449 3.179 3.449 5.657v10.401h6.62zM.528 10.636h6.635V32H.528V10.636zM3.843 0C1.722 0 0 1.721 0 3.843s1.721 3.879 3.843 3.879c2.121 0 3.843-1.757 3.843-3.879A3.846 3.846 0 0 0 3.843 0z"/>
    </symbol>
    <symbol id="icon-twitter" viewBox="0 0 32 32">
      <path d="M32 6.078c-1.19.522-2.458.868-3.78 1.036a6.523 6.523 0 0 0 2.886-3.626 13.11 13.11 0 0 1-4.16 1.588A6.574 6.574 0 0 0 22.154 3c-3.632 0-6.556 2.948-6.556 6.562 0 .52.044 1.02.152 1.496-5.454-.266-10.28-2.88-13.522-6.862a6.605 6.605 0 0 0-.898 3.316 6.57 6.57 0 0 0 2.914 5.452 6.479 6.479 0 0 1-2.964-.808v.072c0 3.188 2.274 5.836 5.256 6.446a6.548 6.548 0 0 1-1.72.216 5.8 5.8 0 0 1-1.242-.112c.85 2.598 3.262 4.508 6.13 4.57a13.182 13.182 0 0 1-8.134 2.798c-.538 0-1.054-.024-1.57-.09A18.469 18.469 0 0 0 10.064 29c12.072 0 18.672-10 18.672-18.668 0-.29-.01-.57-.024-.848A13.087 13.087 0 0 0 32 6.078z"/>
    </symbol>
    <symbol id="icon-phone" viewBox="0 0 32 32">
      <path d="m30.464 22.944-3.872-3.904c-.64-.64-1.504-1.024-2.304-1.024-.864 0-1.632.352-2.304 1.024l-2.24 2.24a1.495 1.495 0 0 0-.32-.16s-.032 0-.032-.032l-.032-.032a5.75 5.75 0 0 0-.992-.544c-1.952-1.216-3.776-2.912-5.632-5.184-.864-1.088-1.472-2.048-1.952-3.104.512-.416.896-.832 1.184-1.152l.992-.992c.768-.704 1.152-1.504 1.152-2.336 0-.864-.384-1.664-1.12-2.432l-3.04-3.04a23.25 23.25 0 0 0-.896-.864C8.416.8 7.616.448 6.784.448c-.928 0-1.696.32-2.4 1.024L2.048 3.808C1.12 4.672.576 5.76.448 7.104v.032c-.064 1.664.192 3.2.896 5.12 1.12 3.008 2.816 5.824 5.344 8.928 3.296 3.712 7.008 6.592 11.136 8.576l.096.032c1.216.544 3.52 1.568 6.08 1.728h.352c1.696 0 2.976-.544 4.032-1.696.384-.448.8-.864 1.152-1.248.288-.224.48-.448.672-.672l.32-.32c1.344-1.472 1.344-3.264-.064-4.64zm-1.12 3.552-.32.32-.032.064c-.16.192-.288.352-.448.48l-.096.096c-.384.384-.832.832-1.28 1.344-.736.8-1.568 1.152-2.816 1.152h-.256c-2.24-.16-4.288-1.056-5.504-1.6l-.064-.032c-3.936-1.888-7.488-4.64-10.592-8.16-2.432-2.944-4.032-5.632-5.088-8.448-.64-1.76-.864-3.04-.8-4.48.096-.928.448-1.664 1.088-2.24l2.368-2.368c.384-.384.768-.544 1.248-.544.416 0 .8.192 1.152.512l.032.032c.288.256.576.544.864.832l3.04 3.04c.576.576.672 1.024.672 1.28s-.064.64-.672 1.184l-1.024 1.024c-.352.384-.768.8-1.312 1.248l-.064.064-.064.096c-.288.384-.32.736-.16 1.248l.064.256c.544 1.184 1.216 2.272 2.176 3.488 1.984 2.432 3.968 4.256 6.08 5.568l.096.064c.256.128.512.256.736.384.096.096.224.16.32.192.128.064.224.096.288.16l.224.16h.064l.096.032c.192.064.32.064.416.064.32 0 .608-.128.896-.416l2.4-2.4c.384-.384.736-.544 1.184-.544.48 0 .928.288 1.184.544l3.904 3.904c.768.768.8 1.568 0 2.4z"/>
    </symbol>
    <symbol id="icon-map" viewBox="0 0 32 32">
      <path d="M16 32h-.008a1.72 1.72 0 0 1-1.215-.5l-8.22-8.22a13.719 13.719 0 0 1-4.058-9.758v-.104.005-.042c0-3.711 1.518-7.068 3.966-9.484l.001-.001C8.923 1.494 12.288.012 15.998.012s7.076 1.482 9.535 3.886l-.003-.002a13.282 13.282 0 0 1 3.968 9.485v.044-.002.099a13.72 13.72 0 0 1-4.057 9.758l-.001.001-8.22 8.205a1.72 1.72 0 0 1-1.222.515zm0-30.5h-.028a12.01 12.01 0 0 0-8.454 3.464l.002-.001A11.798 11.798 0 0 0 4 13.385v.043-.002.09c0 3.401 1.383 6.479 3.617 8.702l8.218 8.205a.226.226 0 0 0 .328 0l8.22-8.205a12.237 12.237 0 0 0 3.618-8.702v-.095.005-.041c0-3.295-1.346-6.275-3.519-8.421l-.001-.001A12.005 12.005 0 0 0 16.029 1.5H16h.002z"/>
      <path d="M16 20.352a6.813 6.813 0 1 1 4.826-2 6.786 6.786 0 0 1-4.82 2H16zM16 8.23a5.316 5.316 0 1 0 3.765 1.555 5.295 5.295 0 0 0-3.756-1.555h-.01H16z"/>
    </symbol>
    <symbol id="icon-mail" viewBox="0 0 45 32">
      <path d="M40.6 0H4.2C1.884 0 0 1.794 0 4v24c0 2.206 1.884 4 4.2 4h36.4c2.316 0 4.2-1.794 4.2-4V4c0-2.206-1.884-4-4.2-4zm0 2.667c.19 0 .371.038.537.103L22.4 18.236 3.663 2.77c.165-.066.346-.103.537-.103h36.4zm0 26.666H4.2c-.772 0-1.4-.598-1.4-1.333V5.587l18.683 15.421c.264.217.591.326.917.326s.654-.108.917-.326L42 5.587V28c0 .736-.628 1.333-1.4 1.333z"/>
    </symbol>
    <symbol id="icon-success" viewBox="0 0 32 32">
      <path d="M0 16C0 7.162 7.162 0 16 0s16 7.162 16 16c0 8.837-7.163 16-16 16S0 24.837 0 16zm23.238-2.762c.681-.681.681-1.794 0-2.475s-1.794-.681-2.475 0l-6.762 6.763-2.762-2.762c-.681-.681-1.794-.681-2.475 0s-.681 1.794 0 2.475l4 4a1.755 1.755 0 0 0 2.475 0l8-8z"/>
    </symbol>
    <symbol id="icon-attention" viewBox="0 0 32 32">
      <path d="M16 0C7.162 0 0 7.162 0 16s7.162 16 16 16 16-7.163 16-16S24.837 0 16 0zm-1.5 9.5c0-.825.675-1.5 1.5-1.5s1.5.672 1.5 1.5v8a1.5 1.5 0 0 1-3 0v-8zM16 25a1.965 1.965 0 1 1 0-3.93A1.965 1.965 0 0 1 16 25z"/>
    </symbol>
    <symbol id="icon-exit" viewBox="0 0 32 32">
      <path d="M32 3.223 28.777 0 16 12.777 3.223 0 0 3.223 12.777 16 0 28.777 3.223 32 16 19.223 28.777 32 32 28.777 19.223 16 32 3.223z"/>
    </symbol>
    <symbol id="icon-man-black" viewBox="0 0 32 32">
      <path d="M16 16c2.947 0 5.333-2.387 5.333-5.333S18.946 5.334 16 5.334c-2.947 0-5.333 2.387-5.333 5.333S13.054 16 16 16zm0 2.667c-3.56 0-10.667 1.787-10.667 5.333v1.333c0 .733.6 1.333 1.333 1.333h18.667c.733 0 1.333-.6 1.333-1.333V24c0-3.547-7.107-5.333-10.667-5.333z"/>
    </symbol>
    <symbol id="icon-tel-black" viewBox="0 0 32 32">
      <path d="m24.882 19.774-3.268-.373a2.561 2.561 0 0 0-2.11.733l-2.367 2.367a19.357 19.357 0 0 1-8.478-8.478l2.38-2.38a2.561 2.561 0 0 0 .733-2.11l-.373-3.242a2.575 2.575 0 0 0-2.56-2.277H6.613c-1.454 0-2.663 1.209-2.573 2.663.682 10.987 9.469 19.761 20.443 20.443 1.454.09 2.663-1.119 2.663-2.573v-2.226a2.55 2.55 0 0 0-2.264-2.547z"/>
    </symbol>
    <symbol id="icon-mail-black" viewBox="0 0 32 32">
      <path d="M26.667 5.333H5.334A2.663 2.663 0 0 0 2.681 8l-.013 16c0 1.467 1.2 2.667 2.667 2.667h21.333c1.467 0 2.667-1.2 2.667-2.667V8c0-1.467-1.2-2.667-2.667-2.667zM26.133 11l-9.427 5.893a1.346 1.346 0 0 1-1.413 0L5.866 11a1.132 1.132 0 1 1 1.2-1.92l8.933 5.587 8.933-5.587a1.132 1.132 0 1 1 1.2 1.92z"/>
    </symbol>
    <symbol id="icon-scissors" viewBox="0 0 512 512">
      <path d="M396.8 51.2c28.3-28.28 74.1-28.28 102.4 0 7.1 7.07 7.1 18.53 0 25.6L216.5 359.5c4.8 12.6 7.5 26.2 7.5 40.5 0 61.9-50.1 112-112 112C50.14 512 0 461.9 0 400s50.14-112.9 112-112.9c14.3 0 27.9 3.6 40.5 8.4l38.6-40.4-38.6-38.6c-12.6 4.8-26.2 7.5-40.5 7.5C50.14 224 0 173.9 0 112 0 50.14 50.14 0 112 0c61.9 0 112 50.14 112 112 0 14.3-2.7 27.9-7.5 40.5l38.6 38.6L396.8 51.2zM160 111.1c0-25.61-21.5-48-48-48-26.51 0-48 22.39-48 48 0 27.4 21.49 48 48 48 26.5 0 48-20.6 48-48zM112 448c26.5 0 48-21.5 48-48s-21.5-48-48-48c-26.51 0-48 21.5-48 48s21.49 48 48 48zm166.6-105.4 64-64 156.6 156.6c7.1 7.1 7.1 18.5 0 25.6-28.3 28.3-74.1 28.3-102.4 0L278.6 342.6z"/>
    </symbol>
    <symbol id="icon-ms-card" viewBox="0 0 576 512">
      <path d="M482.9 410.3c0 6.8-4.6 11.7-11.2 11.7-6.8 0-11.2-5.2-11.2-11.7 0-6.5 4.4-11.7 11.2-11.7 6.6 0 11.2 5.2 11.2 11.7zm-310.8-11.7c-7.1 0-11.2 5.2-11.2 11.7 0 6.5 4.1 11.7 11.2 11.7 6.5 0 10.9-4.9 10.9-11.7-.1-6.5-4.4-11.7-10.9-11.7zm117.5-.3c-5.4 0-8.7 3.5-9.5 8.7h19.1c-.9-5.7-4.4-8.7-9.6-8.7zm107.8.3c-6.8 0-10.9 5.2-10.9 11.7 0 6.5 4.1 11.7 10.9 11.7 6.8 0 11.2-4.9 11.2-11.7 0-6.5-4.4-11.7-11.2-11.7zm105.9 26.1c0 .3.3.5.3 1.1 0 .3-.3.5-.3 1.1-.3.3-.3.5-.5.8-.3.3-.5.5-1.1.5-.3.3-.5.3-1.1.3-.3 0-.5 0-1.1-.3-.3 0-.5-.3-.8-.5-.3-.3-.5-.5-.5-.8-.3-.5-.3-.8-.3-1.1 0-.5 0-.8.3-1.1 0-.5.3-.8.5-1.1.3-.3.5-.3.8-.5.5-.3.8-.3 1.1-.3.5 0 .8 0 1.1.3.5.3.8.3 1.1.5s.2.6.5 1.1zm-2.2 1.4c.5 0 .5-.3.8-.3.3-.3.3-.5.3-.8 0-.3 0-.5-.3-.8-.3 0-.5-.3-1.1-.3h-1.6v3.5h.8V426h.3l1.1 1.4h.8l-1.1-1.3zM576 81v352c0 26.5-21.5 48-48 48H48c-26.5 0-48-21.5-48-48V81c0-26.5 21.5-48 48-48h480c26.5 0 48 21.5 48 48zM64 220.6c0 76.5 62.1 138.5 138.5 138.5 27.2 0 53.9-8.2 76.5-23.1-72.9-59.3-72.4-171.2 0-230.5-22.6-15-49.3-23.1-76.5-23.1-76.4-.1-138.5 62-138.5 138.2zm224 108.8c70.5-55 70.2-162.2 0-217.5-70.2 55.3-70.5 162.6 0 217.5zm-142.3 76.3c0-8.7-5.7-14.4-14.7-14.7-4.6 0-9.5 1.4-12.8 6.5-2.4-4.1-6.5-6.5-12.2-6.5-3.8 0-7.6 1.4-10.6 5.4V392h-8.2v36.7h8.2c0-18.9-2.5-30.2 9-30.2 10.2 0 8.2 10.2 8.2 30.2h7.9c0-18.3-2.5-30.2 9-30.2 10.2 0 8.2 10 8.2 30.2h8.2v-23zm44.9-13.7h-7.9v4.4c-2.7-3.3-6.5-5.4-11.7-5.4-10.3 0-18.2 8.2-18.2 19.3 0 11.2 7.9 19.3 18.2 19.3 5.2 0 9-1.9 11.7-5.4v4.6h7.9V392zm40.5 25.6c0-15-22.9-8.2-22.9-15.2 0-5.7 11.9-4.8 18.5-1.1l3.3-6.5c-9.4-6.1-30.2-6-30.2 8.2 0 14.3 22.9 8.3 22.9 15 0 6.3-13.5 5.8-20.7.8l-3.5 6.3c11.2 7.6 32.6 6 32.6-7.5zm35.4 9.3-2.2-6.8c-3.8 2.1-12.2 4.4-12.2-4.1v-16.6h13.1V392h-13.1v-11.2h-8.2V392h-7.6v7.3h7.6V416c0 17.6 17.3 14.4 22.6 10.9zm13.3-13.4h27.5c0-16.2-7.4-22.6-17.4-22.6-10.6 0-18.2 7.9-18.2 19.3 0 20.5 22.6 23.9 33.8 14.2l-3.8-6c-7.8 6.4-19.6 5.8-21.9-4.9zm59.1-21.5c-4.6-2-11.6-1.8-15.2 4.4V392h-8.2v36.7h8.2V408c0-11.6 9.5-10.1 12.8-8.4l2.4-7.6zm10.6 18.3c0-11.4 11.6-15.1 20.7-8.4l3.8-6.5c-11.6-9.1-32.7-4.1-32.7 15 0 19.8 22.4 23.8 32.7 15l-3.8-6.5c-9.2 6.5-20.7 2.6-20.7-8.6zm66.7-18.3H408v4.4c-8.3-11-29.9-4.8-29.9 13.9 0 19.2 22.4 24.7 29.9 13.9v4.6h8.2V392zm33.7 0c-2.4-1.2-11-2.9-15.2 4.4V392h-7.9v36.7h7.9V408c0-11 9-10.3 12.8-8.4l2.4-7.6zm40.3-14.9h-7.9v19.3c-8.2-10.9-29.9-5.1-29.9 13.9 0 19.4 22.5 24.6 29.9 13.9v4.6h7.9v-51.7zm7.6-75.1v4.6h.8V302h1.9v-.8h-4.6v.8h1.9zm6.6 123.8c0-.5 0-1.1-.3-1.6-.3-.3-.5-.8-.8-1.1-.3-.3-.8-.5-1.1-.8-.5 0-1.1-.3-1.6-.3-.3 0-.8.3-1.4.3-.5.3-.8.5-1.1.8-.5.3-.8.8-.8 1.1-.3.5-.3 1.1-.3 1.6 0 .3 0 .8.3 1.4 0 .3.3.8.8 1.1.3.3.5.5 1.1.8.5.3 1.1.3 1.4.3.5 0 1.1 0 1.6-.3.3-.3.8-.5 1.1-.8.3-.3.5-.8.8-1.1.3-.6.3-1.1.3-1.4zm3.2-124.7h-1.4l-1.6 3.5-1.6-3.5h-1.4v5.4h.8v-4.1l1.6 3.5h1.1l1.4-3.5v4.1h1.1v-5.4zm4.4-80.5c0-76.2-62.1-138.3-138.5-138.3-27.2 0-53.9 8.2-76.5 23.1 72.1 59.3 73.2 171.5 0 230.5 22.6 15 49.5 23.1 76.5 23.1 76.4.1 138.5-61.9 138.5-138.4z"/>
    </symbol>
    <symbol id="icon-visa" viewBox="0 0 576 512">
      <path d="M470.1 231.3s7.6 37.2 9.3 45H446c3.3-8.9 16-43.5 16-43.5-.2.3 3.3-9.1 5.3-14.9l2.8 13.4zM576 80v352c0 26.5-21.5 48-48 48H48c-26.5 0-48-21.5-48-48V80c0-26.5 21.5-48 48-48h480c26.5 0 48 21.5 48 48zM152.5 331.2 215.7 176h-42.5l-39.3 106-4.3-21.5-14-71.4c-2.3-9.9-9.4-12.7-18.2-13.1H32.7l-.7 3.1c15.8 4 29.9 9.8 42.2 17.1l35.8 135h42.5zm94.4.2L272.1 176h-40.2l-25.1 155.4h40.1zm139.9-50.8c.2-17.7-10.6-31.2-33.7-42.3-14.1-7.1-22.7-11.9-22.7-19.2.2-6.6 7.3-13.4 23.1-13.4 13.1-.3 22.7 2.8 29.9 5.9l3.6 1.7 5.5-33.6c-7.9-3.1-20.5-6.6-36-6.6-39.7 0-67.6 21.2-67.8 51.4-.3 22.3 20 34.7 35.2 42.2 15.5 7.6 20.8 12.6 20.8 19.3-.2 10.4-12.6 15.2-24.1 15.2-16 0-24.6-2.5-37.7-8.3l-5.3-2.5-5.6 34.9c9.4 4.3 26.8 8.1 44.8 8.3 42.2.1 69.7-20.8 70-53zM528 331.4 495.6 176h-31.1c-9.6 0-16.9 2.8-21 12.9l-59.7 142.5H426s6.9-19.2 8.4-23.3H486c1.2 5.5 4.8 23.3 4.8 23.3H528z"/>
    </symbol>
    <symbol id="icon-menu" viewBox="0 0 48 32">
      <path d="M0 5.333V0h48v5.333H0zm0 13.334h48v-5.333H0v5.333zM0 32h48v-5.333H0V32z"/>
    </symbol>
  </defs>
</svg>
